<?xml version="1.0" standalone="no"?>
<!DOCTYPE svg PUBLIC "-//W3C//DTD SVG 20010904//EN"
 "http://www.w3.org/TR/2001/REC-SVG-20010904/DTD/svg10.dtd">
<svg version="1.0" xmlns="http://www.w3.org/2000/svg"
 width="425.000000pt" height="425.000000pt" viewBox="0 0 425.000000 425.000000"
 preserveAspectRatio="xMidYMid meet">

<g transform="translate(0.000000,425.000000) scale(0.100000,-0.100000)"
fill="#000000" stroke="none">
<path d="M1220 4038 c-1 -367 -38 -639 -131 -963 -126 -444 -170 -733 -147
-966 7 -74 23 -111 65 -151 31 -30 100 -58 142 -58 25 0 26 -2 23 -45 -5 -60
21 -135 61 -172 50 -48 92 -65 161 -64 l61 0 -3 -58 c-8 -126 77 -209 204
-198 l62 5 6 -47 c8 -61 54 -133 107 -168 38 -25 52 -28 123 -28 69 0 89 4
135 28 29 16 54 27 56 25 1 -2 28 -83 59 -182 31 -98 59 -182 62 -187 3 -5
282 -9 625 -9 551 0 620 2 626 16 3 9 -69 166 -175 382 -100 202 -188 394
-198 427 -9 33 -23 85 -30 115 -8 30 -17 63 -20 74 -6 17 -2 18 37 12 125 -19
240 81 241 208 0 55 -26 130 -106 300 -55 117 -92 172 -177 261 -87 91 -108
149 -119 330 -13 194 -50 294 -128 348 -54 38 -95 48 -177 45 l-70 -3 1 443 1
442 -689 0 -688 0 0 -162z m1335 53 c-3 -33 -7 -201 -10 -373 -2 -172 -5 -319
-5 -326 0 -9 -12 -4 -32 14 -131 110 -302 97 -437 -35 l-53 -51 -65 11 c-200
35 -340 -50 -389 -236 -8 -27 -14 -64 -14 -81 0 -25 -6 -33 -35 -47 -53 -25
-116 -87 -137 -135 -20 -43 -25 -117 -13 -171 6 -27 3 -32 -33 -50 -96 -49
-241 -199 -301 -310 -16 -31 -37 -65 -46 -76 -15 -19 -16 -15 -10 60 17 215
65 458 151 757 92 324 122 525 131 881 l6 227 649 0 648 0 -5 -59z m-137 -682
c37 -18 80 -51 111 -85 l51 -56 63 7 c189 20 279 -100 286 -380 2 -82 12 -132
44 -217 48 -126 51 -158 37 -327 -15 -179 -6 -310 34 -501 51 -242 77 -313
252 -661 90 -181 164 -333 164 -339 0 -7 -193 -9 -581 -8 l-582 3 -58 185 -58
185 59 60 c62 65 148 192 198 290 79 158 100 335 52 429 -35 69 -83 93 -154
79 -28 -6 -52 -10 -54 -8 -1 1 2 22 7 46 6 24 11 60 11 80 0 34 3 38 48 57 67
29 122 41 239 50 172 15 249 73 241 179 -7 77 -40 114 -146 163 -48 23 -127
62 -176 87 -79 41 -99 47 -168 51 -56 3 -92 0 -130 -13 -100 -32 -148 -85
-193 -215 -35 -97 -48 -111 -64 -72 -16 39 -61 81 -97 91 -24 6 -30 14 -36 50
-8 47 -26 80 -67 124 -55 61 -115 72 -172 34 -66 -44 -70 -129 -9 -214 27 -40
32 -63 12 -63 -4 0 -18 23 -30 51 -25 54 -69 89 -113 89 -31 0 -39 19 -39 93
0 84 51 153 147 200 39 19 43 25 43 56 0 20 6 59 14 86 47 178 157 244 349
210 l82 -14 60 59 c52 51 104 85 155 103 43 15 109 6 168 -24z m-748 -659 c19
0 74 -57 91 -95 26 -56 24 -75 -5 -75 -13 0 -42 -7 -65 -15 -52 -18 -66 -13
-96 40 -27 45 -32 84 -14 116 12 23 47 40 67 33 8 -2 17 -4 22 -4z m805 -59
c42 -23 111 -55 154 -73 141 -58 187 -119 147 -196 -26 -50 -83 -72 -217 -83
-95 -8 -139 -16 -197 -39 -42 -16 -76 -28 -77 -27 0 1 -13 21 -28 44 -50 78
-153 105 -244 63 -24 -10 -43 -17 -43 -14 0 3 18 35 40 71 22 37 40 73 40 80
0 7 13 42 29 77 47 103 128 149 253 142 55 -3 79 -10 143 -45z m-1006 -105
c26 -14 56 -65 64 -111 3 -20 -292 -473 -333 -510 -24 -21 -87 -22 -127 -2
-50 27 -76 62 -81 116 -4 44 1 59 48 150 93 176 291 369 383 371 10 0 30 -6
46 -14z m1745 -251 c96 -195 119 -259 113 -318 -8 -86 -64 -138 -156 -145 -84
-6 -95 8 -110 134 -16 134 -17 232 -7 408 l9 150 44 -50 c25 -28 71 -105 107
-179z m-1383 195 c52 -15 81 -50 86 -107 8 -93 -20 -145 -304 -560 -133 -194
-143 -203 -224 -203 -74 0 -128 35 -160 105 -22 48 -24 94 -5 138 7 18 93 148
189 290 180 266 214 304 295 333 45 16 76 17 123 4z m329 -186 c58 -23 92 -84
91 -162 0 -158 -108 -324 -409 -634 -84 -86 -135 -131 -159 -139 -96 -31 -193
41 -193 143 1 44 27 100 90 189 30 41 124 180 211 310 154 231 182 264 251
294 43 19 69 18 118 -1z m268 -336 c32 -35 42 -72 42 -155 0 -129 -70 -300
-191 -463 -128 -174 -271 -257 -382 -221 -76 25 -148 141 -133 214 4 20 51 76
149 177 146 150 245 272 299 367 52 93 165 135 216 81z"/>
<path d="M2228 3292 c-40 -24 -59 -71 -59 -147 -1 -81 23 -155 65 -200 41 -43
78 -53 122 -32 50 24 68 67 68 162 -1 172 -98 279 -196 217z m102 -52 c68 -73
72 -258 6 -288 -33 -15 -66 5 -96 58 -21 38 -25 58 -25 128 0 79 1 85 28 108
37 31 53 30 87 -6z"/>
<path d="M1800 3169 c-89 -35 -78 -179 23 -295 68 -78 147 -96 198 -45 25 25
29 37 29 83 -1 94 -71 207 -153 247 -48 23 -60 24 -97 10z m107 -68 c47 -34
103 -136 103 -188 0 -45 -32 -77 -68 -68 -45 11 -95 59 -129 124 -36 69 -42
115 -16 143 24 26 64 22 110 -11z"/>
<path d="M2611 3105 c-38 -32 -54 -83 -49 -149 6 -67 35 -125 77 -153 49 -33
86 -30 126 10 72 72 72 212 0 284 -43 43 -107 47 -154 8z m110 -25 c64 -35 72
-193 12 -240 -49 -39 -115 15 -129 106 -14 98 49 170 117 134z"/>
<path d="M2290 574 c-85 -37 -122 -102 -123 -215 -1 -129 56 -209 160 -225 94
-14 189 46 213 136 18 68 8 178 -21 230 -43 78 -145 111 -229 74z m132 -73
c13 -11 30 -37 36 -59 25 -83 8 -188 -36 -223 -38 -29 -95 -25 -134 10 -31 28
-33 33 -36 110 -5 91 7 131 46 161 32 26 92 26 124 1z"/>
<path d="M730 556 c0 -15 7 -26 20 -29 19 -5 20 -14 20 -161 0 -145 -1 -156
-20 -166 -12 -6 -20 -21 -20 -35 0 -25 1 -25 90 -25 l90 0 0 30 c0 27 -3 30
-30 30 -29 0 -30 1 -30 50 l0 50 58 0 c103 0 164 51 165 136 1 113 -46 144
-222 144 -121 0 -121 0 -121 -24z m223 -47 c30 -16 37 -28 37 -69 0 -19 -4
-40 -8 -46 -13 -20 -50 -34 -91 -34 l-41 0 0 80 0 80 41 0 c22 0 50 -5 62 -11z"/>
<path d="M1110 556 c0 -15 7 -26 20 -29 19 -5 20 -14 20 -165 0 -152 -1 -161
-20 -167 -13 -4 -20 -15 -20 -31 l0 -24 155 0 155 0 0 60 c0 60 0 60 -29 60
-22 0 -30 -6 -35 -25 -6 -23 -11 -25 -66 -25 l-60 0 0 60 0 60 75 0 75 0 0 35
0 35 -75 0 -75 0 0 60 0 60 44 0 c57 0 76 -8 76 -31 0 -14 7 -19 30 -19 30 0
30 1 30 55 l0 55 -150 0 -150 0 0 -24z"/>
<path d="M1450 525 c0 -54 1 -55 29 -55 22 0 30 6 35 25 5 20 13 25 36 25 l30
0 0 -160 0 -160 -25 -6 c-18 -4 -25 -13 -25 -30 0 -24 2 -24 90 -24 l90 0 0
30 c0 25 -4 30 -25 30 l-25 0 0 161 0 160 33 -3 c24 -2 33 -8 35 -25 3 -18 10
-23 33 -23 29 0 29 1 29 55 l0 55 -170 0 -170 0 0 -55z"/>
<path d="M1820 555 c0 -15 6 -25 14 -25 12 0 16 -27 18 -147 3 -171 2 -180
-23 -188 -12 -4 -19 -16 -19 -31 l0 -24 160 0 160 0 0 65 0 65 -35 0 c-32 0
-35 -2 -35 -30 l0 -30 -65 0 -65 0 0 148 c0 147 0 149 26 171 40 35 26 46 -59
49 -77 3 -77 3 -77 -23z"/>
<path d="M2570 555 c0 -15 6 -25 14 -25 22 0 124 -199 132 -257 6 -52 -9 -83
-42 -83 -8 0 -14 -10 -14 -25 0 -25 0 -25 96 -25 l95 0 -3 28 c-2 21 -9 28
-30 30 -26 3 -28 6 -28 53 0 42 10 69 58 160 31 60 65 111 75 115 10 3 17 15
17 30 0 23 -3 24 -70 24 -67 0 -70 -1 -70 -24 0 -13 7 -26 15 -30 13 -4 10
-17 -17 -71 -18 -36 -35 -65 -38 -65 -8 0 -60 108 -60 125 0 8 7 15 15 15 9 0
15 9 15 25 0 25 -1 25 -80 25 -79 0 -80 0 -80 -25z"/>
<path d="M3040 555 c0 -18 5 -25 20 -25 11 0 20 -4 20 -9 0 -29 -104 -309
-121 -323 -10 -9 -19 -26 -19 -37 0 -19 6 -21 75 -21 74 0 75 0 75 26 0 17 -6
28 -20 31 -23 6 -23 4 -10 37 9 25 13 26 84 26 64 0 77 -3 86 -19 15 -28 13
-39 -10 -46 -13 -4 -20 -15 -20 -31 0 -24 2 -24 85 -24 84 0 85 0 85 25 0 17
-7 28 -22 34 -19 7 -35 43 -88 195 l-65 186 -77 0 c-77 0 -78 0 -78 -25z m143
-152 l25 -83 -59 0 c-32 0 -59 4 -59 9 0 27 53 172 60 165 4 -5 19 -46 33 -91z"/>
<path d="M3390 555 c0 -15 6 -25 14 -25 11 0 16 -28 21 -123 10 -168 1 -216
-37 -217 -5 0 -8 -11 -8 -25 l0 -25 160 0 160 0 0 65 0 65 -35 0 c-32 0 -35
-2 -35 -30 l0 -30 -65 0 -65 0 0 150 c0 147 0 150 24 165 16 11 22 22 19 35
-5 18 -14 20 -79 20 -72 0 -74 -1 -74 -25z"/>
</g>
</svg>
